<?xml version="1.0" encoding="UTF-8" standalone="no"?>
<svg
   width="989.85699"
   height="334.26727"
   viewBox="0 0 989.85699 334.26727"
   version="1.1"
   xml:space="preserve"
   style="clip-rule:evenodd;fill-rule:evenodd;stroke-linejoin:round;stroke-miterlimit:2"
   id="svg10"
   sodipodi:docname="Fritz! Logo 2025.svg"
   inkscape:version="1.3 (0e150ed6c4, 2023-07-21)"
   xmlns:inkscape="http://www.inkscape.org/namespaces/inkscape"
   xmlns:sodipodi="http://sodipodi.sourceforge.net/DTD/sodipodi-0.dtd"
   xmlns="http://www.w3.org/2000/svg"
   xmlns:svg="http://www.w3.org/2000/svg"
   xmlns:serif="http://www.serif.com/"><defs
   id="defs10" /><sodipodi:namedview
   id="namedview10"
   pagecolor="#505050"
   bordercolor="#eeeeee"
   borderopacity="1"
   inkscape:showpageshadow="0"
   inkscape:pageopacity="0"
   inkscape:pagecheckerboard="0"
   inkscape:deskcolor="#505050"
   inkscape:zoom="0.7989899"
   inkscape:cx="495"
   inkscape:cy="168.33755"
   inkscape:window-width="2560"
   inkscape:window-height="1490"
   inkscape:window-x="-12"
   inkscape:window-y="-12"
   inkscape:window-maximized="1"
   inkscape:current-layer="g8" />&#10;    <g
   id="_00f7d895-4570-44e9-b724-a8f591f28329"
   serif:id="00f7d895-4570-44e9-b724-a8f591f28329"
   transform="translate(-0.142,-225.84012)">&#10;    </g>&#10;    <g
   id="ArtBoard1"
   transform="matrix(1,0,0,2.34542,-44.2835,-1107.6631)">&#10;        &#10;        <clipPath
   id="_clip1">&#10;            <rect
   x="44.141998"
   y="375.97601"
   width="989.85699"
   height="334.26801"
   id="rect2" />&#10;        </clipPath>&#10;        <g
   clip-path="url(#_clip1)"
   id="g10">&#10;            <g
   transform="matrix(11.77,0,0,5.01828,539.212,543.526)"
   id="g9">&#10;                <g
   id="g8">&#10;                    <g
   transform="translate(-5.8,-2.35)"
   id="g2"
   style="fill:#e2001a;fill-opacity:1">&#10;                        <path
   d="m -0.75,-7.55 -2.6,0.7 0.1,17.6 h 6.6 v -21.5 h -4.9 z"
   style="fill:#e2001a;fill-opacity:1;fill-rule:nonzero"
   id="path2" />&#10;                    </g>&#10;                    <g
   transform="translate(-480.35,-279.8)"
   id="g3"
   style="fill:#e2001a;fill-opacity:1">&#10;                        <path
   d="m 469.4,276.8 c -0.3,-4.2 -3.9,-5.2 -7.4,-5.6 -0.8,-0.1 -1.9,-0.1 -3.3,-0.1 -1.7,0 -3.6,0.1 -5.1,0.1 h -0.5 v 22.2 h 6.6 V 283 l 6.6,11 0.3,-0.2 c 1.6,-1.4 3.3,-2.8 4.8,-4.4 l 0.2,-0.2 -5.4,-6.4 c 2.4,-2 3.4,-3.8 3.2,-6 z m -9.6,5.8 v -6.7 h 1 c 0.5,0 2,0.7 2,2.4 0,1.7 -1.6,3.1 -3,4.3 z"
   style="fill:#e2001a;fill-opacity:1;fill-rule:nonzero"
   id="path3" />&#10;                    </g>&#10;                    <g
   transform="translate(-480.35,-279.8)"
   id="g4"
   style="fill:#e2001a;fill-opacity:1">&#10;                        <path
   d="m 513.9,266 c -4.3,-0.2 -8.6,-0.4 -13.1,-0.4 h -3.3 v 5.3 H 479 v 6 l 5.9,-0.1 v 16.5 h 6.8 v -16.5 l 5.9,0.1 v -5.3 h 0.3 c 2.5,-0.1 4.5,-0.1 6.3,-0.1 h 0.6 l -8.5,16.5 h 17.6 v -6 h -0.3 c -1.7,0.1 -3.4,0.2 -5.1,0.2 H 506 l 8.6,-16.2 z"
   style="fill:#e2001a;fill-opacity:1;fill-rule:nonzero"
   id="path4" />&#10;                    </g>&#10;                    <g
   transform="translate(-35.5,-1.9)"
   id="g5"
   style="fill:#e2001a;fill-opacity:1">&#10;                        <path
   d="m 6.55,-6.3 v -5.8 l -13.1,0.3 v 23.9 h 6.9 V 3.6 h 5.7 V -2 h -5.8 v -4.3 z"
   style="fill:#e2001a;fill-opacity:1;fill-rule:nonzero"
   id="path5" />&#10;                    </g>&#10;                    <g
   transform="translate(38.9,-5)"
   id="g6"
   style="fill:#e2001a;fill-opacity:1">&#10;                        <path
   d="m 3.15,-5.4 -5.6,-0.4 -0.7,11.4 4.6,0.2 z"
   style="fill:#e2001a;fill-opacity:1;fill-rule:nonzero"
   id="path6" />&#10;                    </g>&#10;                    <g
   transform="translate(37.75,4.15)"
   id="g7"
   style="fill:#e2001a;fill-opacity:1">&#10;                        <path
   d="m -3.3,-0.35 3,3.7 3.6,-3 -2.9,-3.7 z"
   style="fill:#e2001a;fill-opacity:1;fill-rule:nonzero"
   id="path7" />&#10;                    </g>&#10;                </g>&#10;            </g>&#10;        </g>&#10;    </g>&#10;</svg>
